<svg id="bde9031a-7ece-4bf7-95eb-5ef343f0e9e5" data-name="Layer 1" xmlns="http://www.w3.org/2000/svg" viewBox="0 0 256 256"><defs><style>.a65386a7-521d-499c-8fbf-618091a0726b,.e1a62b52-624f-4cd5-bd43-a6cff60a31ad{fill:none;stroke:#f2e3d6;stroke-miterlimit:10;}.a65386a7-521d-499c-8fbf-618091a0726b{stroke-width:10.98px;}.e1a62b52-624f-4cd5-bd43-a6cff60a31ad{stroke-width:7.32px;}</style></defs><path class="a65386a7-521d-499c-8fbf-618091a0726b" d="M152.25,33.88H57.79V222.12H198.21V79.83Z"/><path class="e1a62b52-624f-4cd5-bd43-a6cff60a31ad" d="M91.37,103.67V97.94a13.35,13.35,0,0,1-7.86-2.47l1.15-2a12,12,0,0,0,7.14,2.39c4.44,0,7.37-2.9,7.37-6.63s-2.36-5.84-6.46-7.67c-5.46-2.35-8.65-4.81-8.65-9.29s3.17-7.68,7.73-8.33V58.16H94v5.68a11.94,11.94,0,0,1,6.61,2l-1.15,2A11.25,11.25,0,0,0,93.12,66c-4.68,0-6.56,3.15-6.56,5.82,0,3.47,2.1,5.08,7,7.27,5.13,2.34,8.17,5,8.17,9.9,0,4.09-2.77,8.1-8.08,8.93v5.78Z"/><line class="a65386a7-521d-499c-8fbf-618091a0726b" x1="124.34" y1="99" x2="175.64" y2="99"/><line class="a65386a7-521d-499c-8fbf-618091a0726b" x1="78.43" y1="122.6" x2="175.64" y2="122.6"/><line class="a65386a7-521d-499c-8fbf-618091a0726b" x1="78.43" y1="146.2" x2="175.64" y2="146.2"/><line class="a65386a7-521d-499c-8fbf-618091a0726b" x1="78.43" y1="169.8" x2="175.64" y2="169.8"/><line class="a65386a7-521d-499c-8fbf-618091a0726b" x1="78.43" y1="193.41" x2="129.74" y2="193.41"/></svg>