<svg id="ada838ee-143e-4ad5-af6a-dcb1feb87069" data-name="Layer 1" xmlns="http://www.w3.org/2000/svg" viewBox="0 0 256 256"><defs><style>.ffa92954-1593-4007-be58-3b05ace9bf74{fill:none;stroke:#f9d4e4;stroke-miterlimit:10;stroke-width:10.41px;}</style></defs><circle class="ffa92954-1593-4007-be58-3b05ace9bf74" cx="92.53" cy="71.14" r="40.84"/><path class="ffa92954-1593-4007-be58-3b05ace9bf74" d="M164.32,192.12V225.7H20.76v-57A41.77,41.77,0,0,1,62.53,127h60a41.73,41.73,0,0,1,41.21,34.83"/><path class="ffa92954-1593-4007-be58-3b05ace9bf74" d="M151.69,204.24a8.62,8.62,0,0,1-5.83-2.7l-13.73-14.21H114.18c-4.53,0-8.59-3.4-8.82-7.92a8.36,8.36,0,0,1,8.35-8.81h22a8.35,8.35,0,0,1,6,2.56l8.93,9.25,19-30.08a8.36,8.36,0,0,1,14.14,0L206,187.52h20.39c4.53,0,8.59,3.39,8.82,7.91a8.36,8.36,0,0,1-8.35,8.81H201.41a8.37,8.37,0,0,1-7.07-3.89l-16.27-25.76a1.61,1.61,0,0,0-2.71,0l-16.27,25.76a8.38,8.38,0,0,1-6.22,3.85A9.37,9.37,0,0,1,151.69,204.24Z"/></svg>