<svg id="a31f941f-c7ff-44b3-b7bc-f518e51cfd40" data-name="Layer 1" xmlns="http://www.w3.org/2000/svg" viewBox="0 0 256 256"><defs><style>.efd70ed3-1069-4619-9ea7-1abf800931a6{fill:#e8d1c1;}</style></defs><path class="efd70ed3-1069-4619-9ea7-1abf800931a6" d="M80.37,210.47a95.23,95.23,0,0,0,139.36-56.91,90.16,90.16,0,0,0,2.8-14.19l.22-1.79.14-1.8c.08-1.2.22-2.4.24-3.61l.09-3.61c0-1.18,0-2.45,0-3.55-.05-1.38-.12-2.75-.22-4.12l6.49-.48a87.37,87.37,0,0,0-18.65-14.6,74.26,74.26,0,0,1-13.32,17l6.49-.48c.09,1.1.14,2.2.18,3.3.08,1.85,0,3.85,0,5.76,0,1-.13,1.93-.19,2.89l-.11,1.44-.18,1.44a71.41,71.41,0,0,1-2.24,11.33A76.22,76.22,0,0,1,89.92,194Z"/><path class="efd70ed3-1069-4619-9ea7-1abf800931a6" d="M175.62,45.53A95.24,95.24,0,0,0,36.26,102.44a91.31,91.31,0,0,0-2.8,14.19l-.21,1.79-.14,1.8c-.08,1.2-.22,2.4-.24,3.61l-.09,3.61c0,1.18,0,2.45,0,3.56,0,1.37.12,2.74.22,4.11l-6.49.49a87.63,87.63,0,0,0,18.65,14.59,74.78,74.78,0,0,1,13.31-17l-6.48.49c-.09-1.1-.14-2.2-.18-3.31-.08-1.85,0-3.84,0-5.75,0-1,.13-1.93.19-2.89l.11-1.44.18-1.44a71.73,71.73,0,0,1,2.23-11.34A76.24,76.24,0,0,1,166.09,62Z"/></svg>